<svg xmlns="http://www.w3.org/2000/svg" xmlns:xlink="http://www.w3.org/1999/xlink" width="500" zoomAndPan="magnify" viewBox="0 0 375 374.999991" height="500" preserveAspectRatio="xMidYMid meet" version="1.0"><defs><g/><clipPath id="c20e22c8e3"><path d="M 176.097656 56.015625 L 195.140625 56.015625 L 195.140625 75.058594 L 176.097656 75.058594 Z M 176.097656 56.015625 " clip-rule="nonzero"/></clipPath><clipPath id="4f0aba1805"><path d="M 185.621094 56.015625 C 180.363281 56.015625 176.097656 60.277344 176.097656 65.535156 C 176.097656 70.792969 180.363281 75.058594 185.621094 75.058594 C 190.878906 75.058594 195.140625 70.792969 195.140625 65.535156 C 195.140625 60.277344 190.878906 56.015625 185.621094 56.015625 Z M 185.621094 56.015625 " clip-rule="nonzero"/></clipPath><clipPath id="59a67eca60"><path d="M 136.464844 124.847656 L 148.875 124.847656 L 148.875 137.257812 L 136.464844 137.257812 Z M 136.464844 124.847656 " clip-rule="nonzero"/></clipPath><clipPath id="df5a64cd21"><path d="M 142.667969 124.847656 C 139.242188 124.847656 136.464844 127.625 136.464844 131.050781 C 136.464844 134.476562 139.242188 137.257812 142.667969 137.257812 C 146.097656 137.257812 148.875 134.476562 148.875 131.050781 C 148.875 127.625 146.097656 124.847656 142.667969 124.847656 Z M 142.667969 124.847656 " clip-rule="nonzero"/></clipPath><clipPath id="e0b4501356"><path d="M 138.765625 216.800781 L 156.734375 216.800781 L 156.734375 234.773438 L 138.765625 234.773438 Z M 138.765625 216.800781 " clip-rule="nonzero"/></clipPath><clipPath id="b82700b535"><path d="M 147.75 216.800781 C 142.785156 216.800781 138.765625 220.824219 138.765625 225.785156 C 138.765625 230.75 142.785156 234.773438 147.75 234.773438 C 152.710938 234.773438 156.734375 230.75 156.734375 225.785156 C 156.734375 220.824219 152.710938 216.800781 147.75 216.800781 Z M 147.75 216.800781 " clip-rule="nonzero"/></clipPath></defs><rect x="-37.5" width="450" fill="#ffffff" y="-37.499999" height="449.999989" fill-opacity="1"/><rect x="-37.5" width="450" fill="#ffffff" y="-37.499999" height="449.999989" fill-opacity="1"/><g fill="#000000" fill-opacity="1"><g transform="translate(156.734145, 267.090489)"><g><path d="M 20.3125 -45.421875 C 14.394531 -37.679688 11.4375 -29.3125 11.4375 -20.3125 C 11.4375 -9.613281 15.929688 -1.304688 24.921875 4.609375 C 30.160156 8.140625 36.109375 9.90625 42.765625 9.90625 C 49.421875 9.90625 55.195312 8.59375 60.09375 5.96875 C 69.3125 1.195312 74.492188 -6.820312 75.640625 -18.09375 C 75.753906 -18.894531 75.8125 -19.691406 75.8125 -20.484375 C 75.8125 -24.703125 74.644531 -29.253906 72.3125 -34.140625 C 69.976562 -39.035156 66.191406 -43.535156 60.953125 -47.640625 L 30.21875 -71.875 C 23.5 -77.113281 20.140625 -83.882812 20.140625 -92.1875 C 20.140625 -100.5 22.816406 -107.53125 28.171875 -113.28125 C 33.523438 -119.03125 40.753906 -121.90625 49.859375 -121.90625 C 54.410156 -121.90625 59.359375 -121.335938 64.703125 -120.203125 L 71.53125 -120.203125 L 71.875 -99.203125 L 70.171875 -99.203125 C 70.054688 -104.660156 68.09375 -108.953125 64.28125 -112.078125 C 60.46875 -115.210938 55.6875 -116.78125 49.9375 -116.78125 C 44.1875 -116.78125 39.375 -114.875 35.5 -111.0625 C 31.632812 -107.25 29.703125 -102.351562 29.703125 -96.375 C 29.703125 -90.40625 32.207031 -85.425781 37.21875 -81.4375 L 68.8125 -56.515625 C 81.332031 -46.609375 87.59375 -34.65625 87.59375 -20.65625 C 87.59375 -10.1875 83.4375 -1.195312 75.125 6.3125 C 67.945312 12.800781 58.382812 16.046875 46.4375 16.046875 C 39.15625 16.046875 32.664062 14.679688 26.96875 11.953125 C 16.269531 6.941406 9.84375 -1.59375 7.6875 -13.65625 C 7.34375 -15.476562 7.171875 -17.78125 7.171875 -20.5625 C 7.171875 -23.351562 7.96875 -27.164062 9.5625 -32 C 11.15625 -36.84375 14.226562 -41.710938 18.78125 -46.609375 Z M 20.3125 -45.421875 "/></g></g></g><g clip-path="url(#c20e22c8e3)"><g clip-path="url(#4f0aba1805)"><path fill="#ad9551" d="M 176.097656 56.015625 L 195.140625 56.015625 L 195.140625 75.058594 L 176.097656 75.058594 Z M 176.097656 56.015625 " fill-opacity="1" fill-rule="nonzero"/></g></g><g clip-path="url(#59a67eca60)"><g clip-path="url(#df5a64cd21)"><path fill="#000000" d="M 136.464844 124.847656 L 148.875 124.847656 L 148.875 137.257812 L 136.464844 137.257812 Z M 136.464844 124.847656 " fill-opacity="1" fill-rule="nonzero"/></g></g><g fill="#ad9551" fill-opacity="1"><g transform="translate(124.528487, 206.248799)"><g><path d="M 18.75 -115.65625 C 25.570312 -118.488281 32.132812 -119.90625 38.4375 -119.90625 C 43.695312 -119.90625 49.109375 -117.960938 54.671875 -114.078125 C 57.710938 -111.972656 61.128906 -107.875 64.921875 -101.78125 C 67.441406 -97.582031 70.644531 -89.96875 74.53125 -78.9375 L 93.75 -24.421875 C 98.15625 -12.234375 102.644531 -2.546875 107.21875 4.640625 C 111.789062 11.835938 115.96875 17.25 119.75 20.875 C 123.53125 24.5 127.46875 27.046875 131.5625 28.515625 C 135.65625 29.984375 139.039062 30.71875 141.71875 30.71875 C 144.40625 30.71875 146.796875 30.507812 148.890625 30.09375 L 149.046875 31.671875 C 144.003906 33.347656 139.066406 34.1875 134.234375 34.1875 C 129.410156 34.1875 124.582031 32.953125 119.75 30.484375 C 114.914062 28.015625 110.398438 24.578125 106.203125 20.171875 C 97.160156 11.023438 89.488281 -2.894531 83.1875 -21.59375 L 77.046875 -39.546875 L 33.875 -39.546875 L 23 -11.5 C 22.476562 -10.238281 22.21875 -8.976562 22.21875 -7.71875 C 22.21875 -6.457031 22.769531 -5.117188 23.875 -3.703125 C 24.976562 -2.285156 26.679688 -1.578125 28.984375 -1.578125 L 30.25 -1.578125 L 30.25 0 L -1.421875 0 L -1.421875 -1.578125 L 0 -1.578125 C 2.519531 -1.578125 4.988281 -2.335938 7.40625 -3.859375 C 9.820312 -5.378906 11.816406 -7.664062 13.390625 -10.71875 L 52.46875 -104.3125 C 46.789062 -112.394531 39.753906 -116.4375 31.359375 -116.4375 C 27.578125 -116.4375 23.53125 -115.648438 19.21875 -114.078125 Z M 35.609375 -44.28125 L 75.46875 -44.28125 L 63.03125 -80.984375 C 60.613281 -88.023438 58.40625 -93.539062 56.40625 -97.53125 Z M 35.609375 -44.28125 "/></g></g></g><g clip-path="url(#e0b4501356)"><g clip-path="url(#b82700b535)"><path fill="#ad9551" d="M 138.765625 216.800781 L 156.734375 216.800781 L 156.734375 234.773438 L 138.765625 234.773438 Z M 138.765625 216.800781 " fill-opacity="1" fill-rule="nonzero"/></g></g></svg>